<svg xmlns="http://www.w3.org/2000/svg" version="1.1"
     viewBox="0 0 64 64" xml:space="preserve">

  <!-- White background -->
  <rect x="0" y="0" width="64" height="80" fill="#ffffff"/>

  <!-- Blue shapes -->
  <path fill="#007BFF" d="M61.71,18.57l-0.24-0.24c-1.46-1.46-3.47-2.29-5.54-2.29c-0.43,0-0.81,0.28-0.95,0.68l-1.34,4.02l-4.08,4.08c-0.6,0.6-1.53,1.25-2.49,0.86c-0.81-0.32-1.43-1.29-1.45-2.35c-0.02-1.03-0.51-1.98-1.34-2.59c-0.82-0.61-1.86-0.8-2.84-0.53c-1.21,0.34-2.38,0.96-3.05,1.64c-0.96,0.96-1.28,2.41-0.81,3.69c0.3,0.82,1.58,2.52,2.8,3.99l-2.14,0.26c-1.08,0.13-1.92,0.98-2.05,2.06c-0.18,1.58-0.44,2.36-0.58,2.63l-1.48,0.32c-0.63,0.14-1.16,0.51-1.49,1.05L16.19,62.47c-0.24,0.39-0.18,0.9,0.14,1.23s0.84,0.39,1.23,0.14l26.63-16.44c0.54-0.34,0.92-0.87,1.05-1.5l0.32-1.48c0.27-0.15,1.05-0.4,2.63-0.58c1.08-0.13,1.93-0.97,2.06-2.05l0.25-2.11c1.5,1.26,3.05,2.41,3.99,2.76c1.28,0.47,2.73,0.15,3.69-0.81c0.67-0.67,1.3-1.84,1.64-3.05c0.27-0.98,0.08-2.01-0.53-2.84c-0.61-0.83-1.56-1.32-2.64-1.34c-1.01-0.03-1.98-0.64-2.3-1.45c-0.38-0.96,0.26-1.89,0.86-2.49l4.08-4.08l4.02-1.34c0.41-0.14,0.68-0.52,0.68-0.95C64,22.05,63.16,20.03,61.71,18.57z"/>

  <path fill="#007BFF" d="M16.93,38.32c0.81,0.32,1.43,1.29,1.45,2.35c0.02,1.03,0.51,1.98,1.34,2.59c0.82,0.61,1.86,0.8,2.84,0.53c1.21-0.34,2.38-0.96,3.05-1.64c0.96-0.96,1.28-2.41,0.81-3.69c-0.3-0.82-1.58-2.52-2.8-3.99l2.14-0.26c1.08-0.13,1.92-0.98,2.05-2.06c0.18-1.58,0.44-2.36,0.58-2.63l1.48-0.32c0.63-0.14,1.16-0.51,1.49-1.05L47.81,1.53c0.24-0.39,0.18-0.9-0.14-1.23c-0.33-0.33-0.84-0.39-1.23-0.14L19.81,16.59c-0.54,0.34-0.92,0.87-1.05,1.49l-0.32,1.48c-0.27,0.15-1.05,0.4-2.63,0.58c-1.08,0.13-1.93,0.97-2.06,2.05L13.5,24.3c-1.5-1.26-3.05-2.41-3.99-2.76c-1.28-0.47-2.73-0.15-3.69,0.81c-0.67,0.67-1.3,1.84-1.64,3.05c-0.27,0.98-0.08,2.01,0.53,2.84c0.61,0.83,1.56,1.32,2.64,1.34c1.01,0.03,1.98,0.64,2.3,1.45c0.38,0.96-0.26,1.89-0.86,2.49L4.7,37.6l-4.02,1.34C0.28,39.08,0,39.46,0,39.89c0,2.06,0.84,4.08,2.29,5.54l0.24,0.24c1.46,1.46,3.47,2.29,5.54,2.29c0.43,0,0.81-0.28,0.95-0.68l1.34-4.02l4.08-4.08C15.04,38.58,15.96,37.94,16.93,38.32z"/>
</svg>
