<svg xmlns="http://www.w3.org/2000/svg" xmlns:xlink="http://www.w3.org/1999/xlink" version="1.1" x="0px" y="0px" viewBox="0 0 64 80" style="enable-background:new 0 0 64 64;" xml:space="preserve"><path d="M61.71,18.57l-0.24-0.24c-1.46-1.46-3.47-2.29-5.54-2.29c-0.43,0-0.81,0.28-0.95,0.68l-1.34,4.02l-4.08,4.08  c-0.6,0.6-1.53,1.25-2.49,0.86c-0.81-0.32-1.43-1.29-1.45-2.35c-0.02-1.03-0.51-1.98-1.34-2.59c-0.82-0.61-1.86-0.8-2.84-0.53  c-1.21,0.34-2.38,0.96-3.05,1.64c-0.96,0.96-1.28,2.41-0.81,3.69c0.3,0.82,1.58,2.52,2.8,3.99l-2.14,0.26  c-1.08,0.13-1.92,0.98-2.05,2.06c0,0,0,0,0,0c-0.18,1.58-0.44,2.36-0.58,2.63l-1.48,0.32c-0.63,0.14-1.16,0.51-1.49,1.05  L16.19,62.47c-0.24,0.39-0.18,0.9,0.14,1.23s0.84,0.39,1.23,0.14l26.63-16.44c0.54-0.34,0.92-0.87,1.05-1.5l0.32-1.48  c0.27-0.15,1.05-0.4,2.63-0.58c1.08-0.13,1.93-0.97,2.06-2.05l0.25-2.11c1.5,1.26,3.05,2.41,3.99,2.76  c1.28,0.47,2.73,0.15,3.69-0.81c0.67-0.67,1.3-1.84,1.64-3.05c0.27-0.98,0.08-2.01-0.53-2.84c-0.61-0.83-1.56-1.32-2.64-1.34  c-1.01-0.03-1.98-0.64-2.3-1.45c-0.38-0.96,0.26-1.89,0.86-2.49l4.08-4.08l4.02-1.34c0.41-0.14,0.68-0.52,0.68-0.95  C64,22.05,63.16,20.03,61.71,18.57z M54.51,22.69l1.41,1.41l1.41,1.41l-2.83,2.83l-2.83-2.83L54.51,22.69z M47.86,32.18l0,3.66H44.2  v-3.66H47.86z M34.33,36.9c0.05-0.08,0.12-0.13,0.22-0.15l1.67-0.36c1.06-0.23,1.63-1.48,1.96-4.31c0.02-0.17,0.14-0.29,0.3-0.31  l3.48-0.42c0.08,0.09,0.17,0.18,0.25,0.28v4.79L22.39,56.23L34.33,36.9z M47.96,41.87c-2.83,0.33-4.08,0.89-4.31,1.96l-0.36,1.67  c-0.02,0.09-0.07,0.17-0.15,0.22L23.81,57.65l19.81-19.81h4.8l0.27,0.25l-0.42,3.48C48.24,41.73,48.13,41.85,47.96,41.87z   M56.66,36.42c0.41,0.01,0.78,0.2,1.03,0.53c0.24,0.32,0.31,0.73,0.21,1.11c-0.24,0.86-0.7,1.75-1.13,2.17  c-0.41,0.41-1.04,0.55-1.59,0.35c-0.69-0.25-2.6-1.63-4.93-3.76l-0.39-0.39l0-5.24c0-0.28-0.11-0.53-0.29-0.71s-0.43-0.29-0.71-0.29  h-5.24l-0.4-0.4c-1.87-2.09-3.55-4.37-3.76-4.93c0,0,0,0,0,0c-0.2-0.55-0.07-1.17,0.35-1.59c0.42-0.42,1.32-0.89,2.17-1.13  c0.38-0.11,0.79-0.03,1.11,0.21c0.33,0.25,0.52,0.62,0.53,1.09c0.05,1.8,1.17,3.49,2.71,4.1c1.26,0.5,2.63,0.26,3.88-0.65l1.47,1.47  l1.47,1.47c-0.91,1.25-1.15,2.63-0.65,3.88C53.12,35.25,54.8,36.37,56.66,36.42z M59.03,24.38l-1.68-1.68l-1.68-1.68l0.98-2.93  c1.28,0.16,2.5,0.75,3.41,1.66l0.24,0.24c0.92,0.92,1.5,2.13,1.66,3.41L59.03,24.38z"/><path d="M16.93,38.32c0.81,0.32,1.43,1.29,1.45,2.35c0.02,1.03,0.51,1.98,1.34,2.59c0.82,0.61,1.86,0.8,2.84,0.53  c1.21-0.34,2.38-0.96,3.05-1.64c0.96-0.96,1.28-2.41,0.81-3.69c-0.3-0.82-1.58-2.52-2.8-3.99l2.14-0.26  c1.08-0.13,1.92-0.98,2.05-2.06c0,0,0,0,0,0c0.18-1.58,0.44-2.36,0.58-2.63l1.48-0.32c0.63-0.14,1.16-0.51,1.49-1.05L47.81,1.53  c0.24-0.39,0.18-0.9-0.14-1.23c-0.33-0.33-0.84-0.39-1.23-0.14L19.81,16.59c-0.54,0.34-0.92,0.87-1.05,1.49l-0.32,1.48  c-0.27,0.15-1.05,0.4-2.63,0.58c-1.08,0.13-1.93,0.97-2.06,2.05L13.5,24.3c-1.5-1.26-3.05-2.41-3.99-2.76  c-1.28-0.47-2.73-0.15-3.69,0.81c-0.67,0.67-1.3,1.84-1.64,3.05c-0.27,0.98-0.08,2.01,0.53,2.84c0.61,0.83,1.56,1.32,2.64,1.34  c1.01,0.03,1.98,0.64,2.3,1.45c0.38,0.96-0.26,1.89-0.86,2.49L4.7,37.6l-4.02,1.34C0.28,39.08,0,39.46,0,39.89  c0,2.06,0.84,4.08,2.29,5.54l0.24,0.24c1.46,1.46,3.47,2.29,5.54,2.29c0.43,0,0.81-0.28,0.95-0.68l1.34-4.02l4.08-4.08  C15.04,38.58,15.96,37.94,16.93,38.32z M16.14,31.82l0-3.66h3.66v3.66H16.14z M29.67,27.1c-0.05,0.08-0.12,0.13-0.22,0.15  l-1.67,0.36c-1.06,0.23-1.63,1.48-1.96,4.31c-0.02,0.17-0.14,0.29-0.3,0.31l-3.48,0.42c-0.08-0.09-0.17-0.18-0.25-0.28v-4.79  L41.61,7.77L29.67,27.1z M16.04,22.13c2.83-0.33,4.08-0.89,4.31-1.96l0.36-1.67c0.02-0.09,0.07-0.17,0.15-0.22L40.19,6.35  L20.38,26.16h-4.8l-0.27-0.25l0.42-3.48C15.76,22.27,15.87,22.15,16.04,22.13z M7.34,27.58c-0.41-0.01-0.78-0.2-1.03-0.53  c-0.24-0.32-0.31-0.73-0.21-1.11c0.24-0.86,0.7-1.75,1.13-2.17c0.41-0.41,1.04-0.55,1.59-0.35c0.69,0.25,2.6,1.63,4.93,3.76l0.4,0.4  l0,5.24c0,0.28,0.11,0.53,0.29,0.71c0.18,0.18,0.43,0.29,0.71,0.29h5.24l0.4,0.4c1.87,2.09,3.55,4.37,3.76,4.93c0,0,0,0,0,0  c0.2,0.55,0.07,1.17-0.35,1.59c-0.42,0.42-1.32,0.89-2.17,1.13c-0.38,0.11-0.79,0.03-1.11-0.21c-0.33-0.25-0.52-0.62-0.53-1.09  c-0.05-1.8-1.17-3.49-2.71-4.1c-1.26-0.5-2.63-0.26-3.88,0.65l-2.93-2.93c0.91-1.25,1.15-2.63,0.65-3.88  C10.88,28.75,9.2,27.63,7.34,27.58z M7.36,45.92c-1.28-0.16-2.5-0.75-3.41-1.66l-0.24-0.24c-0.92-0.92-1.5-2.13-1.66-3.41l2.93-0.98  l3.37,3.37L7.36,45.92z M9.49,41.31l-2.83-2.83l2.83-2.83l2.83,2.83L9.49,41.31z"/><text x="0" y="79" fill="#000000" font-size="5px" font-weight="bold" font-family="'Helvetica Neue', Helvetica, Arial-Unicode, Arial, Sans-serif">Created by David Carapinha</text><text x="0" y="84" fill="#000000" font-size="5px" font-weight="bold" font-family="'Helvetica Neue', Helvetica, Arial-Unicode, Arial, Sans-serif">from the Noun Project</text></svg>